{
  "asset": {
    "generator": "UnityGltf 2.17.8, Unity 6000.2.8f1, URP",
    "version": "2.0"
  },
  "extensionsUsed": [
    "KHR_texture_transform"
  ],
  "scene": 0,
  "scenes": [
    {
      "nodes": [
        0
      ],
      "name": "Rock_05"
    }
  ],
  "accessors": [
    {
      "bufferView": 0,
      "componentType": 5126,
      "count": 138,
      "type": "VEC3",
      "max": [
        0.07525838166475296,
        0.151009663939476,
        0.078720144927501678
      ],
      "min": [
        -0.074741624295711517,
        0.0010096728801727295,
        -0.0712798535823822
      ]
    },
    {
      "bufferView": 1,
      "componentType": 5126,
      "count": 138,
      "type": "VEC3",
      "max": [
        1.0,
        1.0,
        1.0
      ],
      "min": [
        -0.95636659860610962,
        -1.0,
        -1.0
      ]
    },
    {
      "bufferView": 2,
      "componentType": 5126,
      "count": 138,
      "type": "VEC4",
      "max": [
        0.99547857046127319,
        0.29140475392341614,
        0.98545604944229126,
        1.0
      ],
      "min": [
        -1.0,
        -0.90052562952041626,
        -1.0,
        -1.0
      ]
    },
    {
      "bufferView": 3,
      "componentType": 5126,
      "count": 138,
      "type": "VEC2",
      "max": [
        0.76313591003417969,
        0.36221587657928467
      ],
      "min": [
        0.75989055633544922,
        0.35911071300506592
      ]
    },
    {
      "bufferView": 4,
      "componentType": 5121,
      "count": 264,
      "type": "SCALAR",
      "max": [
        137.0
      ],
      "min": [
        0.0
      ]
    }
  ],
  "buffers": [
    {
      "uri": "Rock_05.bin",
      "byteLength": 6888
    }
  ],
  "bufferViews": [
    {
      "buffer": 0,
      "byteLength": 1656,
      "byteStride": 12,
      "target": 34962
    },
    {
      "buffer": 0,
      "byteOffset": 1656,
      "byteLength": 1656,
      "byteStride": 12,
      "target": 34962
    },
    {
      "buffer": 0,
      "byteOffset": 3312,
      "byteLength": 2208,
      "target": 34962
    },
    {
      "buffer": 0,
      "byteOffset": 5520,
      "byteLength": 1104,
      "target": 34962
    },
    {
      "buffer": 0,
      "byteOffset": 6624,
      "byteLength": 264,
      "target": 34963
    }
  ],
  "images": [
    {
      "uri": "Palette.jpg",
      "name": "Palette"
    }
  ],
  "materials": [
    {
      "pbrMetallicRoughness": {
        "baseColorTexture": {
          "index": 0,
          "extensions": {
            "KHR_texture_transform": {
              "texCoord": 0
            }
          }
        },
        "metallicFactor": 0.0
      },
      "name": "Mat_01"
    }
  ],
  "meshes": [
    {
      "primitives": [
        {
          "attributes": {
            "POSITION": 0,
            "NORMAL": 1,
            "TANGENT": 2,
            "TEXCOORD_0": 3
          },
          "indices": 4,
          "material": 0
        }
      ],
      "name": "Rock_05"
    }
  ],
  "nodes": [
    {
      "mesh": 0,
      "name": "Rock_05"
    }
  ],
  "samplers": [
    {
      "minFilter": 9729,
      "wrapS": 33071,
      "wrapT": 33071
    }
  ],
  "textures": [
    {
      "sampler": 0,
      "source": 0,
      "name": "Palette"
    }
  ]
}